<svg width="1024" height="100" viewBox="0 0 1024 100" fill="none" xmlns="http://www.w3.org/2000/svg">
<path d="M0 51.8466C0 34.0977 18.0213 21.9559 34.8377 27.6333C403.523 152.106 841.348 -84.0887 1014.45 34.3025C1020.67 38.5581 1024 45.7975 1024 53.3358V75C1024 88.8071 1012.81 100 999 100H25C11.1929 100 0 88.8071 0 75V51.8466Z" fill="#AEB1CB"/>
<path d="M1024 70.9528C1024 54.2209 1007.87 42.2046 991.611 46.1672C622.031 136.255 178.854 -84.5846 9.0965 38.0996C3.15009 42.3971 0 49.4582 0 56.795V75C0 88.8072 11.1929 100 25 100H999C1012.81 100 1024 88.8071 1024 75V70.9528Z" fill="#17263F"/>
</svg>
