<svg width="1193" height="1055" viewBox="0 0 1193 1055" fill="none" xmlns="http://www.w3.org/2000/svg">
<path d="M236 590.503L261.458 565.044M261.458 565.044L285.503 541M261.458 565.044L286.917 590.503M261.458 565.044L237.414 541M158 656.503L183.458 631.044M183.458 631.044L207.503 607M183.458 631.044L208.917 656.503M183.458 631.044L159.414 607M4.00008 722.503L29.4584 697.044M29.4584 697.044L53.5026 673M29.4584 697.044L54.9167 722.503M29.4584 697.044L5.41422 673M83.0001 788.503L108.458 763.044M108.458 763.044L132.503 739M108.458 763.044L133.917 788.503M108.458 763.044L84.4142 739M236 854.503L261.458 829.044M261.458 829.044L285.503 805M261.458 829.044L286.917 854.503M261.458 829.044L237.414 805M158 920.503L183.458 895.044M183.458 895.044L207.503 871M183.458 895.044L208.917 920.503M183.458 895.044L159.414 871M4.00008 986.503L29.4584 961.044M29.4584 961.044L53.5026 937M29.4584 961.044L54.9167 986.503M29.4584 961.044L5.41422 937M83.0001 1052.5L108.458 1027.04M108.458 1027.04L132.503 1003M108.458 1027.04L133.917 1052.5M108.458 1027.04L84.4142 1003M534 590.503L559.458 565.044M559.458 565.044L583.503 541M559.458 565.044L584.917 590.503M559.458 565.044L535.414 541M456 656.503L481.458 631.044M481.458 631.044L505.503 607M481.458 631.044L506.917 656.503M481.458 631.044L457.414 607M302 722.503L327.458 697.044M327.458 697.044L351.503 673M327.458 697.044L352.917 722.503M327.458 697.044L303.414 673M381 788.503L406.458 763.044M406.458 763.044L430.503 739M406.458 763.044L431.917 788.503M406.458 763.044L382.414 739M534 854.503L559.458 829.044M559.458 829.044L583.503 805M559.458 829.044L584.917 854.503M559.458 829.044L535.414 805M456 920.503L481.458 895.044M481.458 895.044L505.503 871M481.458 895.044L506.917 920.503M481.458 895.044L457.414 871M302 986.503L327.458 961.044M327.458 961.044L351.503 937M327.458 961.044L352.917 986.503M327.458 961.044L303.414 937M381 1052.5L406.458 1027.04M406.458 1027.04L430.503 1003M406.458 1027.04L431.917 1052.5M406.458 1027.04L382.414 1003M236.182 54.5025L261.64 29.0442M261.64 29.0442L285.684 5M261.64 29.0442L287.098 54.5025M261.64 29.0442L237.596 5M158.182 120.503L183.64 95.0442M183.64 95.0442L207.684 71M183.64 95.0442L209.098 120.503M183.64 95.0442L159.596 71M4.18172 186.503L29.6401 161.044M29.6401 161.044L53.6842 137M29.6401 161.044L55.0984 186.503M29.6401 161.044L5.59586 137M83.1817 252.503L108.64 227.044M108.64 227.044L132.684 203M108.64 227.044L134.098 252.503M108.64 227.044L84.5959 203M236.182 318.503L261.64 293.044M261.64 293.044L285.684 269M261.64 293.044L287.098 318.503M261.64 293.044L237.596 269M158.182 384.503L183.64 359.044M183.64 359.044L207.684 335M183.64 359.044L209.098 384.503M183.64 359.044L159.596 335M4.18172 450.503L29.6401 425.044M29.6401 425.044L53.6842 401M29.6401 425.044L55.0984 450.503M29.6401 425.044L5.59586 401M83.1817 516.503L108.64 491.044M108.64 491.044L132.684 467M108.64 491.044L134.098 516.503M108.64 491.044L84.5959 467M534.182 54.5025L559.64 29.0442M559.64 29.0442L583.684 5M559.64 29.0442L585.098 54.5025M559.64 29.0442L535.596 5M456.182 120.503L481.64 95.0442M481.64 95.0442L505.684 71M481.64 95.0442L507.098 120.503M481.64 95.0442L457.596 71M302.182 186.503L327.64 161.044M327.64 161.044L351.684 137M327.64 161.044L353.098 186.503M327.64 161.044L303.596 137M381.182 252.503L406.64 227.044M406.64 227.044L430.684 203M406.64 227.044L432.098 252.503M406.64 227.044L382.596 203M534.182 318.503L559.64 293.044M559.64 293.044L583.684 269M559.64 293.044L585.098 318.503M559.64 293.044L535.596 269M456.182 384.503L481.64 359.044M481.64 359.044L505.684 335M481.64 359.044L507.098 384.503M481.64 359.044L457.596 335M302.182 450.503L327.64 425.044M327.64 425.044L351.684 401M327.64 425.044L353.098 450.503M327.64 425.044L303.596 401M381.182 516.503L406.64 491.044M406.64 491.044L430.684 467M406.64 491.044L432.098 516.503M406.64 491.044L382.596 467M841.182 590.503L866.64 565.044M866.64 565.044L890.684 541M866.64 565.044L892.098 590.503M866.64 565.044L842.596 541M763.182 656.503L788.64 631.044M788.64 631.044L812.684 607M788.64 631.044L814.098 656.503M788.64 631.044L764.596 607M609.182 722.503L634.64 697.044M634.64 697.044L658.684 673M634.64 697.044L660.098 722.503M634.64 697.044L610.596 673M688.182 788.503L713.64 763.044M713.64 763.044L737.684 739M713.64 763.044L739.098 788.503M713.64 763.044L689.596 739M841.182 854.503L866.64 829.044M866.64 829.044L890.684 805M866.64 829.044L892.098 854.503M866.64 829.044L842.596 805M763.182 920.503L788.64 895.044M788.64 895.044L812.684 871M788.64 895.044L814.098 920.503M788.64 895.044L764.596 871M609.182 986.503L634.64 961.044M634.64 961.044L658.684 937M634.64 961.044L660.098 986.503M634.64 961.044L610.596 937M688.182 1052.5L713.64 1027.04M713.64 1027.04L737.684 1003M713.64 1027.04L739.098 1052.5M713.64 1027.04L689.596 1003M1139.18 590.503L1164.64 565.044M1164.64 565.044L1188.68 541M1164.64 565.044L1190.1 590.503M1164.64 565.044L1140.6 541M1061.18 656.503L1086.64 631.044M1086.64 631.044L1110.68 607M1086.64 631.044L1112.1 656.503M1086.64 631.044L1062.6 607M907.182 722.503L932.64 697.044M932.64 697.044L956.684 673M932.64 697.044L958.098 722.503M932.64 697.044L908.596 673M986.182 788.503L1011.64 763.044M1011.64 763.044L1035.68 739M1011.64 763.044L1037.1 788.503M1011.64 763.044L987.596 739M1139.18 854.503L1164.64 829.044M1164.64 829.044L1188.68 805M1164.64 829.044L1190.1 854.503M1164.64 829.044L1140.6 805M1061.18 920.503L1086.64 895.044M1086.64 895.044L1110.68 871M1086.64 895.044L1112.1 920.503M1086.64 895.044L1062.6 871M907.182 986.503L932.64 961.044M932.64 961.044L956.684 937M932.64 961.044L958.098 986.503M932.64 961.044L908.596 937M986.182 1052.5L1011.64 1027.04M1011.64 1027.04L1035.68 1003M1011.64 1027.04L1037.1 1052.5M1011.64 1027.04L987.596 1003M841.363 54.5025L866.822 29.0442M866.822 29.0442L890.866 5M866.822 29.0442L892.28 54.5025M866.822 29.0442L842.777 5M763.363 120.503L788.822 95.0442M788.822 95.0442L812.866 71M788.822 95.0442L814.28 120.503M788.822 95.0442L764.777 71M609.363 186.503L634.822 161.044M634.822 161.044L658.866 137M634.822 161.044L660.28 186.503M634.822 161.044L610.778 137M688.363 252.503L713.822 227.044M713.822 227.044L737.866 203M713.822 227.044L739.28 252.503M713.822 227.044L689.777 203M841.363 318.503L866.822 293.044M866.822 293.044L890.866 269M866.822 293.044L892.28 318.503M866.822 293.044L842.777 269M763.363 384.503L788.822 359.044M788.822 359.044L812.866 335M788.822 359.044L814.28 384.503M788.822 359.044L764.777 335M609.363 450.503L634.822 425.044M634.822 425.044L658.866 401M634.822 425.044L660.28 450.503M634.822 425.044L610.778 401M688.363 516.503L713.822 491.044M713.822 491.044L737.866 467M713.822 491.044L739.28 516.503M713.822 491.044L689.777 467M1139.36 54.5025L1164.82 29.0442M1164.82 29.0442L1188.87 5M1164.82 29.0442L1190.28 54.5025M1164.82 29.0442L1140.78 5M1061.36 120.503L1086.82 95.0442M1086.82 95.0442L1110.87 71M1086.82 95.0442L1112.28 120.503M1086.82 95.0442L1062.78 71M907.363 186.503L932.822 161.044M932.822 161.044L956.866 137M932.822 161.044L958.28 186.503M932.822 161.044L908.777 137M986.363 252.503L1011.82 227.044M1011.82 227.044L1035.87 203M1011.82 227.044L1037.28 252.503M1011.82 227.044L987.777 203M1139.36 318.503L1164.82 293.044M1164.82 293.044L1188.87 269M1164.82 293.044L1190.28 318.503M1164.82 293.044L1140.78 269M1061.36 384.503L1086.82 359.044M1086.82 359.044L1110.87 335M1086.82 359.044L1112.28 384.503M1086.82 359.044L1062.78 335M907.363 450.503L932.822 425.044M932.822 425.044L956.866 401M932.822 425.044L958.28 450.503M932.822 425.044L908.777 401M986.363 516.503L1011.82 491.044M1011.82 491.044L1035.87 467M1011.82 491.044L1037.28 516.503M1011.82 491.044L987.777 467M4.00008 541H54.0001V591H4.00008V541ZM81.0001 607H131V657H81.0001V607ZM237 673H287V723H237V673ZM160 739H210V789H160V739ZM107.5 541L132.182 590.5H82.8184L107.5 541ZM260.5 607L285.182 656.5H235.818L260.5 607ZM183.5 673L208.182 722.5H158.818L183.5 673ZM28.5001 739L53.1818 788.5H3.81836L28.5001 739ZM211 566C211 579.807 199.807 591 186 591C172.193 591 161 579.807 161 566C161 552.193 172.193 541 186 541C199.807 541 211 552.193 211 566ZM54.0001 632C54.0001 645.807 42.8072 657 29.0001 657C15.193 657 4.00008 645.807 4.00008 632C4.00008 618.193 15.193 607 29.0001 607C42.8072 607 54.0001 618.193 54.0001 632ZM130 698C130 711.807 118.807 723 105 723C91.193 723 80.0001 711.807 80.0001 698C80.0001 684.193 91.193 673 105 673C118.807 673 130 684.193 130 698ZM286 764C286 777.807 274.807 789 261 789C247.193 789 236 777.807 236 764C236 750.193 247.193 739 261 739C274.807 739 286 750.193 286 764ZM4.00008 805H54.0001V855H4.00008V805ZM81.0001 871H131V921H81.0001V871ZM237 937H287V987H237V937ZM160 1003H210V1053H160V1003ZM107.5 805L132.182 854.5H82.8184L107.5 805ZM260.5 871L285.182 920.5H235.818L260.5 871ZM183.5 937L208.182 986.5H158.818L183.5 937ZM28.5001 1003L53.1818 1052.5H3.81836L28.5001 1003ZM211 830C211 843.807 199.807 855 186 855C172.193 855 161 843.807 161 830C161 816.193 172.193 805 186 805C199.807 805 211 816.193 211 830ZM54.0001 896C54.0001 909.807 42.8072 921 29.0001 921C15.193 921 4.00008 909.807 4.00008 896C4.00008 882.193 15.193 871 29.0001 871C42.8072 871 54.0001 882.193 54.0001 896ZM130 962C130 975.807 118.807 987 105 987C91.193 987 80.0001 975.807 80.0001 962C80.0001 948.193 91.193 937 105 937C118.807 937 130 948.193 130 962ZM286 1028C286 1041.81 274.807 1053 261 1053C247.193 1053 236 1041.81 236 1028C236 1014.19 247.193 1003 261 1003C274.807 1003 286 1014.19 286 1028ZM302 541H352V591H302V541ZM379 607H429V657H379V607ZM535 673H585V723H535V673ZM458 739H508V789H458V739ZM405.5 541L430.182 590.5H380.818L405.5 541ZM558.5 607L583.182 656.5H533.818L558.5 607ZM481.5 673L506.182 722.5H456.818L481.5 673ZM326.5 739L351.182 788.5H301.818L326.5 739ZM509 566C509 579.807 497.807 591 484 591C470.193 591 459 579.807 459 566C459 552.193 470.193 541 484 541C497.807 541 509 552.193 509 566ZM352 632C352 645.807 340.807 657 327 657C313.193 657 302 645.807 302 632C302 618.193 313.193 607 327 607C340.807 607 352 618.193 352 632ZM428 698C428 711.807 416.807 723 403 723C389.193 723 378 711.807 378 698C378 684.193 389.193 673 403 673C416.807 673 428 684.193 428 698ZM584 764C584 777.807 572.807 789 559 789C545.193 789 534 777.807 534 764C534 750.193 545.193 739 559 739C572.807 739 584 750.193 584 764ZM302 805H352V855H302V805ZM379 871H429V921H379V871ZM535 937H585V987H535V937ZM458 1003H508V1053H458V1003ZM405.5 805L430.182 854.5H380.818L405.5 805ZM558.5 871L583.182 920.5H533.818L558.5 871ZM481.5 937L506.182 986.5H456.818L481.5 937ZM326.5 1003L351.182 1052.5H301.818L326.5 1003ZM509 830C509 843.807 497.807 855 484 855C470.193 855 459 843.807 459 830C459 816.193 470.193 805 484 805C497.807 805 509 816.193 509 830ZM352 896C352 909.807 340.807 921 327 921C313.193 921 302 909.807 302 896C302 882.193 313.193 871 327 871C340.807 871 352 882.193 352 896ZM428 962C428 975.807 416.807 987 403 987C389.193 987 378 975.807 378 962C378 948.193 389.193 937 403 937C416.807 937 428 948.193 428 962ZM584 1028C584 1041.81 572.807 1053 559 1053C545.193 1053 534 1041.81 534 1028C534 1014.19 545.193 1003 559 1003C572.807 1003 584 1014.19 584 1028ZM4.18172 5H54.1817V55H4.18172V5ZM81.1817 71H131.182V121H81.1817V71ZM237.182 137H287.182V187H237.182V137ZM160.182 203H210.182V253H160.182V203ZM107.682 5L132.363 54.5H83L107.682 5ZM260.682 71L285.363 120.5H236L260.682 71ZM183.682 137L208.363 186.5H159L183.682 137ZM28.6817 203L53.3634 252.5H4L28.6817 203ZM211.182 30C211.182 43.8071 199.989 55 186.182 55C172.375 55 161.182 43.8071 161.182 30C161.182 16.1929 172.375 5 186.182 5C199.989 5 211.182 16.1929 211.182 30ZM54.1817 96C54.1817 109.807 42.9888 121 29.1817 121C15.3746 121 4.18172 109.807 4.18172 96C4.18172 82.1929 15.3746 71 29.1817 71C42.9888 71 54.1817 82.1929 54.1817 96ZM130.182 162C130.182 175.807 118.989 187 105.182 187C91.3746 187 80.1817 175.807 80.1817 162C80.1817 148.193 91.3746 137 105.182 137C118.989 137 130.182 148.193 130.182 162ZM286.182 228C286.182 241.807 274.989 253 261.182 253C247.375 253 236.182 241.807 236.182 228C236.182 214.193 247.375 203 261.182 203C274.989 203 286.182 214.193 286.182 228ZM4.18172 269H54.1817V319H4.18172V269ZM81.1817 335H131.182V385H81.1817V335ZM237.182 401H287.182V451H237.182V401ZM160.182 467H210.182V517H160.182V467ZM107.682 269L132.363 318.5H83L107.682 269ZM260.682 335L285.363 384.5H236L260.682 335ZM183.682 401L208.363 450.5H159L183.682 401ZM28.6817 467L53.3634 516.5H4L28.6817 467ZM211.182 294C211.182 307.807 199.989 319 186.182 319C172.375 319 161.182 307.807 161.182 294C161.182 280.193 172.375 269 186.182 269C199.989 269 211.182 280.193 211.182 294ZM54.1817 360C54.1817 373.807 42.9888 385 29.1817 385C15.3746 385 4.18172 373.807 4.18172 360C4.18172 346.193 15.3746 335 29.1817 335C42.9888 335 54.1817 346.193 54.1817 360ZM130.182 426C130.182 439.807 118.989 451 105.182 451C91.3746 451 80.1817 439.807 80.1817 426C80.1817 412.193 91.3746 401 105.182 401C118.989 401 130.182 412.193 130.182 426ZM286.182 492C286.182 505.807 274.989 517 261.182 517C247.375 517 236.182 505.807 236.182 492C236.182 478.193 247.375 467 261.182 467C274.989 467 286.182 478.193 286.182 492ZM302.182 5H352.182V55H302.182V5ZM379.182 71H429.182V121H379.182V71ZM535.182 137H585.182V187H535.182V137ZM458.182 203H508.182V253H458.182V203ZM405.682 5L430.363 54.5H381L405.682 5ZM558.682 71L583.363 120.5H534L558.682 71ZM481.682 137L506.363 186.5H457L481.682 137ZM326.682 203L351.363 252.5H302L326.682 203ZM509.182 30C509.182 43.8071 497.989 55 484.182 55C470.375 55 459.182 43.8071 459.182 30C459.182 16.1929 470.375 5 484.182 5C497.989 5 509.182 16.1929 509.182 30ZM352.182 96C352.182 109.807 340.989 121 327.182 121C313.375 121 302.182 109.807 302.182 96C302.182 82.1929 313.375 71 327.182 71C340.989 71 352.182 82.1929 352.182 96ZM428.182 162C428.182 175.807 416.989 187 403.182 187C389.375 187 378.182 175.807 378.182 162C378.182 148.193 389.375 137 403.182 137C416.989 137 428.182 148.193 428.182 162ZM584.182 228C584.182 241.807 572.989 253 559.182 253C545.375 253 534.182 241.807 534.182 228C534.182 214.193 545.375 203 559.182 203C572.989 203 584.182 214.193 584.182 228ZM302.182 269H352.182V319H302.182V269ZM379.182 335H429.182V385H379.182V335ZM535.182 401H585.182V451H535.182V401ZM458.182 467H508.182V517H458.182V467ZM405.682 269L430.363 318.5H381L405.682 269ZM558.682 335L583.363 384.5H534L558.682 335ZM481.682 401L506.363 450.5H457L481.682 401ZM326.682 467L351.363 516.5H302L326.682 467ZM509.182 294C509.182 307.807 497.989 319 484.182 319C470.375 319 459.182 307.807 459.182 294C459.182 280.193 470.375 269 484.182 269C497.989 269 509.182 280.193 509.182 294ZM352.182 360C352.182 373.807 340.989 385 327.182 385C313.375 385 302.182 373.807 302.182 360C302.182 346.193 313.375 335 327.182 335C340.989 335 352.182 346.193 352.182 360ZM428.182 426C428.182 439.807 416.989 451 403.182 451C389.375 451 378.182 439.807 378.182 426C378.182 412.193 389.375 401 403.182 401C416.989 401 428.182 412.193 428.182 426ZM584.182 492C584.182 505.807 572.989 517 559.182 517C545.375 517 534.182 505.807 534.182 492C534.182 478.193 545.375 467 559.182 467C572.989 467 584.182 478.193 584.182 492ZM609.182 541H659.182V591H609.182V541ZM686.182 607H736.182V657H686.182V607ZM842.182 673H892.182V723H842.182V673ZM765.182 739H815.182V789H765.182V739ZM712.682 541L737.363 590.5H688L712.682 541ZM865.682 607L890.363 656.5H841L865.682 607ZM788.682 673L813.363 722.5H764L788.682 673ZM633.682 739L658.363 788.5H609L633.682 739ZM816.182 566C816.182 579.807 804.989 591 791.182 591C777.375 591 766.182 579.807 766.182 566C766.182 552.193 777.375 541 791.182 541C804.989 541 816.182 552.193 816.182 566ZM659.182 632C659.182 645.807 647.989 657 634.182 657C620.375 657 609.182 645.807 609.182 632C609.182 618.193 620.375 607 634.182 607C647.989 607 659.182 618.193 659.182 632ZM735.182 698C735.182 711.807 723.989 723 710.182 723C696.375 723 685.182 711.807 685.182 698C685.182 684.193 696.375 673 710.182 673C723.989 673 735.182 684.193 735.182 698ZM891.182 764C891.182 777.807 879.989 789 866.182 789C852.375 789 841.182 777.807 841.182 764C841.182 750.193 852.375 739 866.182 739C879.989 739 891.182 750.193 891.182 764ZM609.182 805H659.182V855H609.182V805ZM686.182 871H736.182V921H686.182V871ZM842.182 937H892.182V987H842.182V937ZM765.182 1003H815.182V1053H765.182V1003ZM712.682 805L737.363 854.5H688L712.682 805ZM865.682 871L890.363 920.5H841L865.682 871ZM788.682 937L813.363 986.5H764L788.682 937ZM633.682 1003L658.363 1052.5H609L633.682 1003ZM816.182 830C816.182 843.807 804.989 855 791.182 855C777.375 855 766.182 843.807 766.182 830C766.182 816.193 777.375 805 791.182 805C804.989 805 816.182 816.193 816.182 830ZM659.182 896C659.182 909.807 647.989 921 634.182 921C620.375 921 609.182 909.807 609.182 896C609.182 882.193 620.375 871 634.182 871C647.989 871 659.182 882.193 659.182 896ZM735.182 962C735.182 975.807 723.989 987 710.182 987C696.375 987 685.182 975.807 685.182 962C685.182 948.193 696.375 937 710.182 937C723.989 937 735.182 948.193 735.182 962ZM891.182 1028C891.182 1041.81 879.989 1053 866.182 1053C852.375 1053 841.182 1041.81 841.182 1028C841.182 1014.19 852.375 1003 866.182 1003C879.989 1003 891.182 1014.19 891.182 1028ZM907.182 541H957.182V591H907.182V541ZM984.182 607H1034.18V657H984.182V607ZM1140.18 673H1190.18V723H1140.18V673ZM1063.18 739H1113.18V789H1063.18V739ZM1010.68 541L1035.36 590.5H986L1010.68 541ZM1163.68 607L1188.36 656.5H1139L1163.68 607ZM1086.68 673L1111.36 722.5H1062L1086.68 673ZM931.682 739L956.363 788.5H907L931.682 739ZM1114.18 566C1114.18 579.807 1102.99 591 1089.18 591C1075.37 591 1064.18 579.807 1064.18 566C1064.18 552.193 1075.37 541 1089.18 541C1102.99 541 1114.18 552.193 1114.18 566ZM957.182 632C957.182 645.807 945.989 657 932.182 657C918.375 657 907.182 645.807 907.182 632C907.182 618.193 918.375 607 932.182 607C945.989 607 957.182 618.193 957.182 632ZM1033.18 698C1033.18 711.807 1021.99 723 1008.18 723C994.375 723 983.182 711.807 983.182 698C983.182 684.193 994.375 673 1008.18 673C1021.99 673 1033.18 684.193 1033.18 698ZM1189.18 764C1189.18 777.807 1177.99 789 1164.18 789C1150.37 789 1139.18 777.807 1139.18 764C1139.18 750.193 1150.37 739 1164.18 739C1177.99 739 1189.18 750.193 1189.18 764ZM907.182 805H957.182V855H907.182V805ZM984.182 871H1034.18V921H984.182V871ZM1140.18 937H1190.18V987H1140.18V937ZM1063.18 1003H1113.18V1053H1063.18V1003ZM1010.68 805L1035.36 854.5H986L1010.68 805ZM1163.68 871L1188.36 920.5H1139L1163.68 871ZM1086.68 937L1111.36 986.5H1062L1086.68 937ZM931.682 1003L956.363 1052.5H907L931.682 1003ZM1114.18 830C1114.18 843.807 1102.99 855 1089.18 855C1075.37 855 1064.18 843.807 1064.18 830C1064.18 816.193 1075.37 805 1089.18 805C1102.99 805 1114.18 816.193 1114.18 830ZM957.182 896C957.182 909.807 945.989 921 932.182 921C918.375 921 907.182 909.807 907.182 896C907.182 882.193 918.375 871 932.182 871C945.989 871 957.182 882.193 957.182 896ZM1033.18 962C1033.18 975.807 1021.99 987 1008.18 987C994.375 987 983.182 975.807 983.182 962C983.182 948.193 994.375 937 1008.18 937C1021.99 937 1033.18 948.193 1033.18 962ZM1189.18 1028C1189.18 1041.81 1177.99 1053 1164.18 1053C1150.37 1053 1139.18 1041.81 1139.18 1028C1139.18 1014.19 1150.37 1003 1164.18 1003C1177.99 1003 1189.18 1014.19 1189.18 1028ZM609.363 5H659.363V55H609.363V5ZM686.363 71H736.363V121H686.363V71ZM842.363 137H892.363V187H842.363V137ZM765.363 203H815.363V253H765.363V203ZM712.863 5L737.545 54.5H688.182L712.863 5ZM865.863 71L890.545 120.5H841.182L865.863 71ZM788.863 137L813.545 186.5H764.182L788.863 137ZM633.863 203L658.545 252.5H609.182L633.863 203ZM816.363 30C816.363 43.8071 805.171 55 791.363 55C777.556 55 766.363 43.8071 766.363 30C766.363 16.1929 777.556 5 791.363 5C805.171 5 816.363 16.1929 816.363 30ZM659.363 96C659.363 109.807 648.17 121 634.363 121C620.556 121 609.363 109.807 609.363 96C609.363 82.1929 620.556 71 634.363 71C648.17 71 659.363 82.1929 659.363 96ZM735.363 162C735.363 175.807 724.17 187 710.363 187C696.556 187 685.363 175.807 685.363 162C685.363 148.193 696.556 137 710.363 137C724.17 137 735.363 148.193 735.363 162ZM891.363 228C891.363 241.807 880.171 253 866.363 253C852.556 253 841.363 241.807 841.363 228C841.363 214.193 852.556 203 866.363 203C880.171 203 891.363 214.193 891.363 228ZM609.363 269H659.363V319H609.363V269ZM686.363 335H736.363V385H686.363V335ZM842.363 401H892.363V451H842.363V401ZM765.363 467H815.363V517H765.363V467ZM712.863 269L737.545 318.5H688.182L712.863 269ZM865.863 335L890.545 384.5H841.182L865.863 335ZM788.863 401L813.545 450.5H764.182L788.863 401ZM633.863 467L658.545 516.5H609.182L633.863 467ZM816.363 294C816.363 307.807 805.171 319 791.363 319C777.556 319 766.363 307.807 766.363 294C766.363 280.193 777.556 269 791.363 269C805.171 269 816.363 280.193 816.363 294ZM659.363 360C659.363 373.807 648.17 385 634.363 385C620.556 385 609.363 373.807 609.363 360C609.363 346.193 620.556 335 634.363 335C648.17 335 659.363 346.193 659.363 360ZM735.363 426C735.363 439.807 724.17 451 710.363 451C696.556 451 685.363 439.807 685.363 426C685.363 412.193 696.556 401 710.363 401C724.17 401 735.363 412.193 735.363 426ZM891.363 492C891.363 505.807 880.171 517 866.363 517C852.556 517 841.363 505.807 841.363 492C841.363 478.193 852.556 467 866.363 467C880.171 467 891.363 478.193 891.363 492ZM907.363 5H957.363V55H907.363V5ZM984.363 71H1034.36V121H984.363V71ZM1140.36 137H1190.36V187H1140.36V137ZM1063.36 203H1113.36V253H1063.36V203ZM1010.86 5L1035.55 54.5H986.182L1010.86 5ZM1163.86 71L1188.55 120.5H1139.18L1163.86 71ZM1086.86 137L1111.55 186.5H1062.18L1086.86 137ZM931.863 203L956.545 252.5H907.182L931.863 203ZM1114.36 30C1114.36 43.8071 1103.17 55 1089.36 55C1075.56 55 1064.36 43.8071 1064.36 30C1064.36 16.1929 1075.56 5 1089.36 5C1103.17 5 1114.36 16.1929 1114.36 30ZM957.363 96C957.363 109.807 946.171 121 932.363 121C918.556 121 907.363 109.807 907.363 96C907.363 82.1929 918.556 71 932.363 71C946.171 71 957.363 82.1929 957.363 96ZM1033.36 162C1033.36 175.807 1022.17 187 1008.36 187C994.556 187 983.363 175.807 983.363 162C983.363 148.193 994.556 137 1008.36 137C1022.17 137 1033.36 148.193 1033.36 162ZM1189.36 228C1189.36 241.807 1178.17 253 1164.36 253C1150.56 253 1139.36 241.807 1139.36 228C1139.36 214.193 1150.56 203 1164.36 203C1178.17 203 1189.36 214.193 1189.36 228ZM907.363 269H957.363V319H907.363V269ZM984.363 335H1034.36V385H984.363V335ZM1140.36 401H1190.36V451H1140.36V401ZM1063.36 467H1113.36V517H1063.36V467ZM1010.86 269L1035.55 318.5H986.182L1010.86 269ZM1163.86 335L1188.55 384.5H1139.18L1163.86 335ZM1086.86 401L1111.55 450.5H1062.18L1086.86 401ZM931.863 467L956.545 516.5H907.182L931.863 467ZM1114.36 294C1114.36 307.807 1103.17 319 1089.36 319C1075.56 319 1064.36 307.807 1064.36 294C1064.36 280.193 1075.56 269 1089.36 269C1103.17 269 1114.36 280.193 1114.36 294ZM957.363 360C957.363 373.807 946.171 385 932.363 385C918.556 385 907.363 373.807 907.363 360C907.363 346.193 918.556 335 932.363 335C946.171 335 957.363 346.193 957.363 360ZM1033.36 426C1033.36 439.807 1022.17 451 1008.36 451C994.556 451 983.363 439.807 983.363 426C983.363 412.193 994.556 401 1008.36 401C1022.17 401 1033.36 412.193 1033.36 426ZM1189.36 492C1189.36 505.807 1178.17 517 1164.36 517C1150.56 517 1139.36 505.807 1139.36 492C1139.36 478.193 1150.56 467 1164.36 467C1178.17 467 1189.36 478.193 1189.36 492Z" stroke="#B4BAEB" stroke-width="4"/>
</svg>
