<svg width="604" height="370" viewBox="0 0 604 370" fill="none" xmlns="http://www.w3.org/2000/svg">
<path d="M2 15.9997C36 -31.4997 67 61.5001 102 15.9997M102 15.9262C136 -31.5732 167 61.4266 202 15.9262C236 -31.5732 267 61.4266 302 15.9262M2 76.9997C36 29.5003 67 122.5 102 76.9997M102 76.9262C136 29.4268 167 122.427 202 76.9262C236 29.4268 267 122.427 302 76.9262M2 138C36 90.5003 67 183.5 102 138M102 137.926C136 90.4268 167 183.427 202 137.926C236 90.4268 267 183.427 302 137.926M2 49.9997C36 2.50027 67 95.5001 102 49.9997M102 49.9262C136 2.42678 167 95.4266 202 49.9262C236 2.42678 267 95.4266 302 49.9262M2 111C36 63.5003 67 156.5 102 111M102 110.926C136 63.4268 167 156.427 202 110.926C236 63.4268 267 156.427 302 110.926M2 172C36 124.5 67 217.5 102 172M102 171.926C136 124.427 167 217.427 202 171.926C236 124.427 267 217.427 302 171.926M2 199C36 151.5 67 244.5 102 199M102 198.926C136 151.427 167 244.427 202 198.926C236 151.427 267 244.427 302 198.926M2 260C36 212.5 67 305.5 102 260M102 259.926C136 212.427 167 305.427 202 259.926C236 212.427 267 305.427 302 259.926M2 321C36 273.5 67 366.5 102 321M102 320.926C136 273.427 167 366.427 202 320.926C236 273.427 267 366.427 302 320.926M2 233C36 185.5 67 278.5 102 233M102 232.926C136 185.427 167 278.427 202 232.926C236 185.427 267 278.427 302 232.926M2 294C36 246.5 67 339.5 102 294M102 293.926C136 246.427 167 339.427 202 293.926C236 246.427 267 339.427 302 293.926M2 355C36 307.5 67 400.5 102 355M102 354.926C136 307.427 167 400.427 202 354.926C236 307.427 267 400.427 302 354.926M302 199C336 151.5 367 244.5 402 199M402 198.926C436 151.427 467 244.427 502 198.926C536 151.427 567 244.427 602 198.926M302 260C336 212.5 367 305.5 402 260M402 259.926C436 212.427 467 305.427 502 259.926C536 212.427 567 305.427 602 259.926M302 321C336 273.5 367 366.5 402 321M402 320.926C436 273.427 467 366.427 502 320.926C536 273.427 567 366.427 602 320.926M302 233C336 185.5 367 278.5 402 233M402 232.926C436 185.427 467 278.427 502 232.926C536 185.427 567 278.427 602 232.926M302 294C336 246.5 367 339.5 402 294M402 293.926C436 246.427 467 339.427 502 293.926C536 246.427 567 339.427 602 293.926M302 355C336 307.5 367 400.5 402 355M402 354.926C436 307.427 467 400.427 502 354.926C536 307.427 567 400.427 602 354.926M302 15.9997C336 -31.4997 367 61.5001 402 15.9997M402 15.9262C436 -31.5732 467 61.4266 502 15.9262C536 -31.5732 567 61.4266 602 15.9262M302 76.9997C336 29.5003 367 122.5 402 76.9997M402 76.9262C436 29.4268 467 122.427 502 76.9262C536 29.4268 567 122.427 602 76.9262M302 138C336 90.5003 367 183.5 402 138M402 137.926C436 90.4268 467 183.427 502 137.926C536 90.4268 567 183.427 602 137.926M302 49.9997C336 2.50027 367 95.5001 402 49.9997M402 49.9262C436 2.42678 467 95.4266 502 49.9262C536 2.42678 567 95.4266 602 49.9262M302 111C336 63.5003 367 156.5 402 111M402 110.926C436 63.4268 467 156.427 502 110.926C536 63.4268 567 156.427 602 110.926M302 172C336 124.5 367 217.5 402 172M402 171.926C436 124.427 467 217.427 502 171.926C536 124.427 567 217.427 602 171.926" stroke="lightgray" stroke-width="4"/>
</svg>
