<svg width="926" height="23" viewBox="0 0 926 23" fill="none" xmlns="http://www.w3.org/2000/svg">
<path d="M0.353516 11.5134C0.353516 9.13129 2.28461 7.2002 4.66674 7.2002H453.113C455.495 7.2002 457.426 9.13129 457.426 11.5134V11.5134C457.426 13.8955 455.495 15.8266 453.113 15.8266H4.66673C2.28461 15.8266 0.353516 13.8955 0.353516 11.5134V11.5134Z" fill="#F9EBEB"/>
<path d="M489.422 11.5134C489.422 9.13129 491.353 7.2002 493.735 7.2002H610.804C613.186 7.2002 615.117 9.13129 615.117 11.5134V11.5134C615.117 13.8955 613.186 15.8266 610.804 15.8266H493.735C491.353 15.8266 489.422 13.8955 489.422 11.5134V11.5134Z" fill="#F9EBEB"/>
<rect x="697.39" y="7.2002" width="228.536" height="8.62644" rx="4.31322" fill="#F9EBEB"/>
<ellipse cx="653.968" cy="11.5135" rx="11.4268" ry="10.7831" fill="#3D4EC2"/>
</svg>
