<svg width="168" height="175" viewBox="0 0 168 175" fill="none" xmlns="http://www.w3.org/2000/svg">
<path d="M83.332 4.24338e-05C82.9145 0.00194243 82.4935 0.0710549 82.0926 0.207855L2.55239 27.8914C0.865195 28.4766 -0.191442 30.1618 0.0289583 31.9364L12.6016 135.004C12.7498 136.224 13.4706 137.298 14.5536 137.884L81.6176 174.332C82.18 174.64 82.8053 174.793 83.4285 174.793C84.0555 174.793 84.6881 174.637 85.2543 174.325L152.66 137.379C153.731 136.79 154.46 135.719 154.604 134.507L167.169 31.4465C167.39 29.6643 166.323 27.9644 164.616 27.3868L84.5641 0.193011C84.1651 0.0600112 83.7495 -0.00185757 83.332 4.24338e-05ZM83.5992 18.9926L132.999 125.393H116.137L105.568 102.622H61.6305L51.0617 125.393H34.1993L83.5992 18.9926ZM83.5992 55.0926L68.7035 87.3926H98.4949L83.5992 55.0926Z" fill="#D3D6EF"/>
</svg>
