<svg width="137" height="183" viewBox="0 0 137 183" fill="none" xmlns="http://www.w3.org/2000/svg">
<path d="M44.6442 0C24.0691 0 7.33355 15.5676 7.33355 34.7069C7.33355 45.1689 12.357 54.5413 20.2518 60.9096C8.53678 66.7695 0.549805 78.2829 0.549805 91.5C0.549805 103.241 6.86992 113.613 16.489 119.897C6.86992 126.18 0.549805 136.552 0.549805 148.293C0.549805 167.432 17.2853 183 37.8604 183C58.4355 183 75.1711 167.432 75.1711 148.293V113.586V69.4138H98.9142C119.489 69.4138 136.225 53.8462 136.225 34.7069C136.225 15.5676 119.489 0 98.9142 0H44.6442ZM44.6442 12.6207H98.9142C112.007 12.6207 122.657 22.5279 122.657 34.7069C122.657 46.8859 112.007 56.7931 98.9142 56.7931H75.1711H44.6442C31.5515 56.7931 20.9011 46.8859 20.9011 34.7069C20.9011 22.5279 31.5515 12.6207 44.6442 12.6207ZM37.8604 69.4138H44.6442H61.6036V113.586H37.8604C24.7678 113.586 14.1173 103.679 14.1173 91.5C14.1173 79.321 24.7678 69.4138 37.8604 69.4138ZM102.306 69.4138C95.1094 69.4138 88.2075 72.0731 83.1187 76.8068C78.0299 81.5405 75.1711 87.9607 75.1711 94.6552C75.1711 101.35 78.0299 107.77 83.1187 112.504C88.2075 117.237 95.1094 119.897 102.306 119.897C109.503 119.897 116.405 117.237 121.493 112.504C126.582 107.77 129.441 101.35 129.441 94.6552C129.441 87.9607 126.582 81.5405 121.493 76.8068C116.405 72.0731 109.503 69.4138 102.306 69.4138ZM37.8604 126.207H61.6036V148.293C61.6036 160.472 50.9531 170.379 37.8604 170.379C24.7678 170.379 14.1173 160.472 14.1173 148.293C14.1173 136.114 24.7678 126.207 37.8604 126.207Z" fill="#D3D6EF"/>
</svg>
