<svg width="152" height="163" viewBox="0 0 152 163" fill="none" xmlns="http://www.w3.org/2000/svg">
<path d="M75.6891 0.39624C72.9729 0.39624 70.3198 1.45669 68.2774 3.64526L53.1172 20.0709C52.296 20.5447 51.6012 21.2215 51.0959 22.0564L3.25698 73.3186C-0.827848 77.6732 -0.827848 84.8256 3.25698 89.2027L68.2774 158.876C72.3623 163.231 79.0159 163.231 83.1007 158.876L148.121 89.2027C152.206 84.8482 152.206 77.6958 148.121 73.3186L83.1007 3.64526C81.0583 1.45669 78.4053 0.39624 75.6891 0.39624ZM75.6891 12.1288L140.204 81.2607L75.6891 150.393L11.174 81.2607L55.8124 33.4279L65.2454 43.536C64.9927 44.5062 64.9085 45.5441 64.9085 46.6045C64.9085 50.8688 67.0772 54.524 70.2988 56.5321V105.989C67.0772 107.997 64.9085 111.653 64.9085 115.917C64.9085 122.302 69.7303 127.469 75.6891 127.469C81.6479 127.469 86.4697 122.302 86.4697 115.917C86.4697 111.653 84.3009 107.997 81.0794 105.989V60.6836L97.5872 78.3727C97.3555 79.2977 97.2503 80.2679 97.2503 81.2607C97.2503 87.6459 102.072 92.8128 108.031 92.8128C113.99 92.8128 118.811 87.6459 118.811 81.2607C118.811 74.8755 113.99 69.7086 108.031 69.7086C107.104 69.7086 106.199 69.8214 105.336 70.0696L86.1328 49.4925C86.3644 48.5675 86.4697 47.5973 86.4697 46.6045C86.4697 40.2193 81.6479 35.0524 75.6891 35.0524C74.6995 35.0524 73.7309 35.1427 72.8255 35.4134L63.3925 25.3054L75.6891 12.1288Z" fill="#D3D6EF"/>
</svg>
