<svg width="152" height="162" viewBox="0 0 152 162" fill="none" xmlns="http://www.w3.org/2000/svg">
<path d="M76.4225 0.158691C34.7298 0.158691 0.926758 36.3694 0.926758 81.0316C0.926758 125.699 34.7298 161.905 76.4225 161.905C118.115 161.905 151.918 125.699 151.918 81.0316C151.918 36.3694 118.115 0.158691 76.4225 0.158691ZM97.5702 142.641C97.1359 136.313 96.6502 128.473 96.6217 125.299C96.433 122.863 96.1874 116.666 90.6954 112.708C112.499 110.752 122.875 97.843 123.621 80.784C124.244 71.0694 120.639 62.5268 114.236 55.6326C114.562 48.2583 114.028 39.5186 113.585 35.6776C108.669 34.1613 97.2027 40.6462 93.9986 43.4212C87.2415 40.6107 70.7035 39.6252 60.6532 43.4212C53.5281 38.0534 45.4172 34.7376 40.9961 35.6626C36.9145 45.3522 39.5381 54.5111 40.3353 55.6027C35.0786 60.7484 27.7462 67.0818 29.7376 80.3498C32.9318 99.8046 45.7095 110.298 66.2819 112.866C61.894 113.826 61.1528 117.334 60.7848 118.855C46.969 124.961 43.0201 115.085 41.2739 112.512C35.4751 104.824 30.2704 107.053 29.9495 107.174C29.638 107.295 29.4022 107.78 29.4354 108.013C29.7277 109.671 32.8847 111.354 33.0402 111.49C37.3198 114.907 38.9053 121.079 39.8817 122.838C46.0205 133.65 60.2893 129.166 60.4261 129.257C60.4355 130.202 60.3272 138.158 60.2422 144.35C34.225 136.738 15.0821 111.313 15.0821 81.0316C15.0821 44.7398 42.5437 15.3228 76.422 15.3228C110.3 15.3228 137.762 44.7398 137.762 81.0316C137.762 109.352 121.012 133.406 97.5702 142.641Z" fill="#D3D6EF"/>
</svg>
