<svg width="122" height="163" viewBox="0 0 122 163" fill="none" xmlns="http://www.w3.org/2000/svg">
<path d="M2.38786 0.376709C1.12807 0.376709 0.189216 1.58817 0.30103 3.06876L10.9223 143.642C11.0341 145.123 12.1185 146.66 13.3331 147.058L58.4036 161.824C59.6176 162.222 61.6041 162.222 62.8184 161.825L108.026 147.034C109.24 146.637 110.326 145.1 110.437 143.62L121.076 3.06909C121.189 1.58849 120.249 0.377038 118.989 0.377038L2.38786 0.376709ZM40.3563 93.2927C41.6161 93.2927 42.7381 94.5041 42.8508 95.9847L43.5236 104.882C43.6354 106.363 44.7215 107.891 45.9383 108.278L58.4089 112.252C59.6246 112.64 60.6242 112.957 60.6298 112.957C60.6351 112.957 61.6345 112.639 62.8508 112.252L75.3436 108.268C76.5593 107.881 77.6465 106.352 77.7592 104.872L79.1138 87.0465C79.2264 85.5659 78.2879 84.3545 77.0281 84.3545H29.034C27.7742 84.3545 26.6522 83.1423 26.5403 81.6624L22.8304 32.6172C22.7308 31.2968 23.6797 30.216 24.9398 30.216H96.348C97.6072 30.216 98.5567 31.2965 98.4568 32.6175L97.2542 48.1154H41.5171C40.2573 48.1154 39.3184 49.3269 39.4302 50.8074L40.412 63.7567C40.5238 65.237 41.6465 66.4488 42.9065 66.4488H93.8549C94.9769 66.4488 95.8123 67.5293 95.7108 68.85L91.8489 119.894C91.7862 120.725 90.7422 121.73 89.5281 122.127L62.8962 130.841C61.6821 131.238 60.6733 131.566 60.6546 131.571C60.6359 131.576 59.6274 131.254 58.413 130.857L31.7527 122.128C30.5386 121.73 29.4539 120.193 29.3418 118.713L27.6259 95.9847C27.514 94.5041 28.4537 93.2927 29.7135 93.2927H40.3563Z" fill="#D3D6EF"/>
</svg>
