<svg width="152" height="150" viewBox="0 0 152 150" fill="none" xmlns="http://www.w3.org/2000/svg">
<path d="M0.0135948 122.452L17.6441 107.605C21.046 115.997 24.1401 123.097 31.5622 123.097C38.6764 123.097 43.1628 119.225 43.1628 104.162V1.72322H64.8135V104.588C64.8135 135.792 51.6685 149.996 32.49 149.996C15.17 149.996 5.11644 137.514 0.0126953 122.45L0.0135948 122.452ZM76.5734 119.224L94.2021 105.021C98.8433 115.567 104.875 123.314 115.545 123.314C124.517 123.314 130.237 117.072 130.237 108.464C130.237 98.1344 124.36 94.4751 114.462 88.4514L109.051 85.2203C93.4299 75.9693 83.0685 64.3476 83.0685 39.8143C83.0685 17.2171 95.4405 0 114.773 0C128.537 0 138.435 6.67245 145.548 24.1037L128.69 39.1694C124.978 29.9158 120.958 26.2578 114.772 26.2578C108.431 26.2578 104.41 31.8532 104.41 39.1694C104.41 48.2075 108.431 51.8681 117.709 57.4635L123.122 60.6908C141.526 71.6675 151.888 82.8572 151.888 108.034C151.888 135.152 136.577 150 116.008 150C95.904 150 82.9128 136.658 76.5725 119.225" fill="#D3D6EF"/>
</svg>
