<svg width="204" height="200" viewBox="0 0 204 200" fill="none" xmlns="http://www.w3.org/2000/svg">
<path d="M68.7378 0.0886812C62.6244 -0.354378 56.6162 0.841045 51.3496 4.16418C44.3275 8.59502 39.6513 16.1581 37.1396 24.8659C34.6279 33.5736 34.0473 43.6088 34.9643 54.5676C35.0572 55.6776 35.2358 56.8346 35.3598 57.9638C34.4013 58.4119 33.3918 58.8235 32.4641 59.2915C23.3217 63.903 15.6633 69.4644 10.019 76.1955C4.37481 82.9267 0.724609 91.1384 0.724609 100C0.724609 108.862 4.37481 117.074 10.019 123.805C15.6633 130.536 23.3217 136.097 32.4641 140.709C33.3918 141.177 34.4013 141.588 35.3598 142.036C35.2358 143.166 35.0572 144.323 34.9643 145.433C34.0473 156.391 34.6279 166.427 37.1396 175.134C39.6513 183.842 44.3275 191.405 51.3496 195.836C58.3717 200.267 66.6981 200.916 74.8541 198.939C83.01 196.962 91.249 192.489 99.4744 186.141C100.307 185.499 101.142 184.754 101.975 184.073C102.807 184.754 103.642 185.499 104.475 186.141C112.7 192.489 120.939 196.962 129.095 198.939C137.251 200.916 145.577 200.267 152.6 195.836C159.622 191.405 164.298 183.842 166.81 175.134C169.321 166.427 169.902 156.391 168.985 145.433C168.892 144.323 168.713 143.166 168.589 142.036C169.548 141.588 170.557 141.177 171.485 140.709C180.627 136.097 188.286 130.536 193.93 123.805C199.574 117.074 203.225 108.862 203.225 100C203.225 91.1384 199.574 82.9267 193.93 76.1955C188.286 69.4644 180.627 63.903 171.485 59.2915C170.557 58.8235 169.548 58.4119 168.589 57.9638C168.713 56.8346 168.892 55.6776 168.985 54.5676C169.902 43.6088 169.321 33.5736 166.81 24.8659C164.298 16.1581 159.622 8.59502 152.6 4.16418C145.577 -0.266667 137.251 -0.915323 129.095 1.06124C120.939 3.03782 112.7 7.51165 104.475 13.8589C103.642 14.5015 102.807 15.246 101.975 15.9275C101.142 15.246 100.307 14.5015 99.4744 13.8589C91.249 7.51165 83.01 3.03781 74.8541 1.06124C72.8151 0.5671 70.7756 0.236367 68.7378 0.0886812ZM67.7914 15.8349C69.0239 15.9363 70.334 16.1598 71.7324 16.4987C77.1976 17.8232 83.7427 21.1757 90.6461 26.425C84.8965 32.386 79.2382 39.1674 73.8371 46.7562C65.133 48.0738 56.9344 50.0246 49.3438 52.4835C48.637 43.3286 49.2433 35.4537 50.9258 29.6206C52.6484 23.6487 55.2266 19.9743 58.5818 17.8572C61.0981 16.2694 64.0941 15.5307 67.7914 15.8349ZM136.158 15.8349C139.855 15.5307 142.851 16.2694 145.367 17.8572C148.723 19.9743 151.301 23.6487 153.023 29.6206C154.706 35.4537 155.312 43.3286 154.605 52.4835C147.015 50.0246 138.816 48.0738 130.112 46.7562C124.711 39.1674 119.053 32.386 113.303 26.425C120.206 21.1757 126.752 17.8232 132.217 16.4987C133.615 16.1598 134.925 15.9363 136.158 15.8349ZM101.975 36.444C104.517 39.0126 107.054 41.8689 109.588 44.8574C107.066 44.7599 104.546 44.6722 101.975 44.6722C99.4036 44.6722 96.8831 44.7599 94.3611 44.8574C96.8951 41.8689 99.4326 39.0126 101.975 36.444ZM101.975 60.4801C108.95 60.4801 115.711 60.9285 122.216 61.6843C126.067 67.4631 129.803 73.6378 133.29 80.2401C136.778 86.8429 139.804 93.465 142.458 100C139.804 106.535 136.778 113.157 133.29 119.76C129.803 126.362 126.067 132.537 122.216 138.316C115.711 139.072 108.95 139.52 101.975 139.52C94.9989 139.52 88.238 139.072 81.7331 138.316C77.8817 132.537 74.1467 126.362 70.6589 119.76C67.1708 113.157 64.1452 106.535 61.4916 100C64.1452 93.465 67.1708 86.8429 70.6589 80.2401C74.1467 73.6378 77.8817 67.4631 81.7331 61.6843C88.238 60.9285 94.9989 60.4801 101.975 60.4801ZM62.0848 65.2195C60.7467 67.5576 59.4152 69.9029 58.1297 72.3361C56.8443 74.7694 55.655 77.2024 54.4713 79.6381C53.3719 75.7512 52.3816 71.9149 51.618 68.2298C54.9232 67.1085 58.4512 66.1234 62.0848 65.2195ZM141.864 65.2195C145.498 66.1234 149.026 67.1085 152.331 68.2298C151.568 71.9149 150.577 75.7512 149.478 79.6381C148.294 77.2024 147.105 74.7694 145.819 72.3361C144.534 69.9029 143.203 67.5576 141.864 65.2195ZM38.0012 73.9416C39.8495 82.3623 42.4018 91.0955 45.7136 100C42.4018 108.905 39.8495 117.638 38.0012 126.059C30.3967 122.151 24.4634 117.63 20.6836 113.122C16.8127 108.506 15.1889 104.234 15.1889 100C15.1889 95.766 16.8127 91.4946 20.6836 86.8783C24.4634 82.3706 30.3967 77.8492 38.0012 73.9416ZM165.948 73.9416C173.553 77.8492 179.486 82.3706 183.266 86.8783C187.136 91.4946 188.76 95.766 188.76 100C188.76 104.234 187.136 108.506 183.266 113.122C179.486 117.63 173.553 122.151 165.948 126.059C164.1 117.638 161.547 108.905 158.236 100C161.547 91.0955 164.1 82.3623 165.948 73.9416ZM101.975 76.2881C90.0777 76.2881 80.2782 86.998 80.2782 100C80.2782 113.002 90.0777 123.712 101.975 123.712C113.872 123.712 123.671 113.002 123.671 100C123.671 86.998 113.872 76.2881 101.975 76.2881ZM101.975 92.0961C106.054 92.0961 109.207 95.5412 109.207 100C109.207 104.459 106.054 107.904 101.975 107.904C97.8948 107.904 94.7425 104.459 94.7425 100C94.7425 95.5412 97.8948 92.0961 101.975 92.0961ZM54.4713 120.362C55.655 122.798 56.8443 125.231 58.1297 127.664C59.4152 130.097 60.7467 132.443 62.0848 134.781C58.4512 133.877 54.9232 132.892 51.618 131.77C52.3816 128.085 53.3719 124.249 54.4713 120.362ZM149.478 120.362C150.577 124.249 151.568 128.085 152.331 131.77C149.026 132.892 145.498 133.877 141.864 134.781C143.203 132.443 144.534 130.097 145.819 127.664C147.105 125.231 148.294 122.798 149.478 120.362ZM49.3438 147.517C56.9344 149.976 65.133 151.926 73.8371 153.244C79.2382 160.833 84.8965 167.614 90.6461 173.575C83.7427 178.825 77.1976 182.177 71.7324 183.501C66.1389 184.857 61.9369 184.26 58.5818 182.143C55.2266 180.026 52.6484 176.351 50.9258 170.38C49.2433 164.547 48.637 156.672 49.3438 147.517ZM154.605 147.517C155.312 156.672 154.706 164.547 153.023 170.38C151.301 176.351 148.723 180.026 145.367 182.143C142.012 184.26 137.81 184.857 132.217 183.501C126.752 182.177 120.206 178.825 113.303 173.575C119.053 167.614 124.711 160.833 130.112 153.244C138.816 151.926 147.015 149.976 154.605 147.517ZM94.3611 155.143C96.8831 155.24 99.4036 155.328 101.975 155.328C104.546 155.328 107.066 155.24 109.588 155.143C107.054 158.131 104.517 160.988 101.975 163.556C99.4326 160.988 96.8951 158.131 94.3611 155.143Z" fill="#D3D6EF"/>
</svg>
