<svg width="200" height="150" viewBox="0 0 200 150" fill="none" xmlns="http://www.w3.org/2000/svg">
<path d="M94.314 0.0973688C84.8917 -0.411813 74.2981 1.06683 63.9352 4.75054C47.4678 10.6008 29.6571 19.8024 16.8499 31.7896C1.63589 46.0568 -0.804521 58.4735 0.195521 63.6684C3.75567 82.0929 29.1319 94.1124 39.2857 103C38.7857 103.28 38.3194 103.521 37.8794 103.774C32.7858 106.306 13.8903 116.256 9.05006 126.96C3.58316 139.097 9.95457 147.784 14.1414 148.972C27.202 152.604 40.1266 146.257 47.3069 135.533C54.4938 124.801 53.6283 110.796 50.3148 104.414C50.2815 104.318 50.2179 104.256 50.1846 104.16C51.498 103.375 52.8354 102.585 54.1821 101.8C56.7756 100.264 59.3061 98.8625 61.5262 97.6406C60.2728 101.02 59.3692 105.096 58.8959 110.973C58.3359 117.854 61.1728 126.757 64.8597 130.266C66.4864 131.802 68.4512 131.839 69.6646 131.839C73.9781 131.839 75.9166 128.273 78.0633 124.013C80.7168 118.818 83.0635 112.787 83.0635 112.787C83.0635 112.787 80.1343 129.106 88.1679 129.106C91.1014 129.106 94.0423 125.325 95.3557 123.386V123.413C95.3557 123.413 95.4041 123.292 95.5641 123.04C95.8774 122.569 96.0328 122.293 96.0328 122.293V122.2C97.2196 120.165 99.8216 115.507 103.728 107.814C108.789 97.8674 113.625 85.441 113.625 85.441C114.091 88.1716 114.738 90.8655 115.565 93.5074C116.438 96.4769 118.291 99.7331 119.758 102.894C118.571 104.518 117.844 105.454 117.844 105.454C117.844 105.481 117.863 105.507 117.883 105.52C116.943 106.77 115.877 108.109 114.784 109.427C110.783 114.185 106.028 119.636 105.408 121.2C104.655 123.043 104.847 124.415 106.281 125.48C107.341 126.292 109.23 126.416 111.19 126.266C114.783 126.014 117.314 125.133 118.534 124.573C120.781 123.767 122.903 122.659 124.836 121.266C128.743 118.386 131.124 114.254 130.904 108.813C130.777 105.81 129.799 102.8 128.612 99.9871C128.959 99.4888 129.34 98.9597 129.68 98.4272C135.867 89.389 140.644 79.4679 140.644 79.4679C141.111 82.1984 141.758 84.8924 142.584 87.5342C143.338 90.0668 144.805 92.8502 146.152 95.574C140.345 100.298 136.741 105.776 135.488 109.373C133.174 116.036 134.998 119.03 138.404 119.72C139.938 120.034 142.116 119.322 143.743 118.64C146.157 117.834 148.428 116.662 150.488 115.16C154.395 112.279 158.177 108.248 157.923 102.774C157.83 100.303 157.15 97.8296 156.244 95.454C161.151 93.3924 167.519 92.2655 175.646 93.2007C193.046 95.235 196.456 106.121 195.803 110.653C195.149 115.193 191.489 117.729 190.269 118.48C189.048 119.231 188.678 119.513 188.771 120.08C188.924 120.892 189.483 120.858 190.516 120.666C191.956 120.414 199.636 116.977 199.982 108.56C200.482 97.93 190.279 86.2373 172.195 86.321H172.169C165.891 86.3249 159.702 87.7662 154.069 90.5475C152.222 86.8271 150.313 83.5715 150.006 81.1345C149.633 78.2879 149.235 76.6003 149.668 73.2281C150.108 69.849 152.071 65.0565 152.038 64.7084C152.004 64.3671 151.598 62.6493 147.571 62.6151C143.545 62.581 140.067 63.397 139.667 64.4551C138.954 66.4006 138.4 68.3939 138.014 70.4282C137.294 74.0872 129.953 87.1678 125.8 93.9874C124.426 91.325 123.273 88.9849 123.026 87.1076C122.653 84.261 122.241 82.5735 122.675 79.2012C123.115 75.8221 125.091 71.0297 125.057 70.6815C125.024 70.3402 124.618 68.6224 120.591 68.5883C116.564 68.5541 113.081 69.3701 112.674 70.4282C112.267 71.4931 111.827 73.9916 111.02 76.4013C110.207 78.811 100.429 100.594 97.8689 106.254C96.5555 109.134 95.4269 111.45 94.6135 113.013C94.4868 113.266 94.4001 113.424 94.3401 113.547C94.4334 113.39 94.4963 113.232 94.4963 113.293C93.8096 114.638 93.4025 115.387 93.4025 115.387V115.413C92.8692 116.417 92.2762 117.333 91.9962 117.333C91.8095 117.333 91.4007 114.704 92.0874 111.107C93.5541 103.536 97.0298 91.7704 96.9964 91.3608C96.9631 91.1423 97.6381 89.1065 94.7047 88.0142C91.8579 86.9834 90.8432 88.7075 90.5899 88.7075C90.3366 88.7075 90.1472 89.3342 90.1472 89.3342C90.1472 89.3342 93.2929 76.068 84.0792 76.068C78.3256 76.068 70.323 82.387 66.3962 88.1076C63.9294 89.4524 58.585 92.3681 52.9581 95.4673C50.8047 96.6551 48.5929 97.8735 46.4995 99.0272C46.3462 98.8702 46.2168 98.7175 46.0568 98.5605C34.8697 86.6075 14.2186 78.1574 15.092 62.1085C15.4053 56.2582 17.4456 40.9064 54.8072 22.2566C85.4351 6.9927 109.919 11.1786 114.133 20.4966C120.193 33.7945 101.036 58.5451 69.2348 62.1085C57.1143 63.4533 51.5306 58.2097 49.9372 56.4554C48.2838 54.6122 48.0247 54.5141 47.398 54.8554C46.3646 55.4152 47.0247 57.0459 47.398 58.0153C48.338 60.4865 52.5157 64.357 59.1693 66.5483C65.0162 68.4597 78.4418 70.0644 95.6292 63.4018C114.937 55.9541 129.686 35.723 125.279 18.3634C122.475 7.33444 110.018 0.946005 94.314 0.0973688ZM84.0662 83.8944C84.5549 83.9313 84.9176 84.1161 85.1209 84.4677C86.2143 86.3176 81.322 99.9353 80.0686 103C78.0685 107.915 73.846 120.435 71.2792 119.773C69.0924 119.213 67.743 109.667 70.8365 100.28C72.3965 95.5566 75.7123 89.9255 77.6857 87.7342C80.0508 85.0822 82.6002 83.7837 84.0662 83.8944ZM149.004 99.3338C149.37 100.426 149.563 101.574 149.59 102.72C149.556 109.765 144.53 112.388 141.503 113.48C140.877 113.043 140.96 111.567 143.053 107C143.866 105.219 145.75 102.215 149.004 99.3338ZM44.0385 107.094C46.6319 116.603 44.1349 124.991 38.0747 131.599C32.3278 137.886 24.2621 140.266 20.7953 138.266C17.0752 136.102 18.5457 126.837 25.6393 120.133C29.9528 116.065 35.5207 112.314 39.2076 110C40.0543 109.502 41.2623 108.748 42.7624 107.84C43.0157 107.683 43.14 107.627 43.14 107.627C43.42 107.443 43.7251 107.285 44.0385 107.094ZM122.557 108.187C122.557 108.344 122.596 108.509 122.596 108.693C122.556 114.291 117.172 118.071 114.732 119.573H114.758V119.586C113.911 120.023 113.126 120.298 112.752 120.08C112.472 119.923 113.104 119.333 113.104 119.333C113.104 119.333 117.445 114.663 119.159 112.533C120.159 111.284 121.311 109.812 122.557 108.187Z" fill="#D3D6EF"/>
</svg>
