<svg width="179" height="195" viewBox="0 0 179 195" fill="none" xmlns="http://www.w3.org/2000/svg">
<path d="M89.5977 0.0830078L139.536 60.2403V6.88096L89.5977 0.0830078ZM89.5977 0.0830078L44.8381 63.5305H134.357L89.5977 0.0830078ZM89.5977 0.0830078L39.6593 6.88096V60.2403L89.5977 0.0830078ZM39.6593 6.88096L0.818359 70.3285L33.4891 64.165L39.6593 6.88096ZM0.818359 70.3285L89.2943 194.531L89.3535 194.405L33.6889 70.3285H0.818359ZM139.536 6.88096L145.706 64.165L178.377 70.3285L139.536 6.88096ZM178.377 70.3285H145.04L89.3831 194.414L89.5977 194.958L178.377 70.3285ZM89.5977 194.958L89.3683 194.441L89.3091 194.55L89.5977 194.958ZM41.0354 70.3285L89.3683 194.377L138.16 70.3285H41.0354Z" fill="#D3D6EF"/>
</svg>
