<svg width="203" height="200" viewBox="0 0 203 200" fill="none" xmlns="http://www.w3.org/2000/svg">
<path d="M0.165039 99.9967C0.165039 139.575 23.4539 173.785 57.2315 189.991L8.93261 59.302C3.31661 71.738 0.165039 85.5 0.165039 99.9967ZM169.761 94.9527C169.761 82.59 165.265 74.0347 161.414 67.3753C156.282 59.134 151.472 52.164 151.472 43.922C151.472 34.73 158.525 26.1747 168.471 26.1747C168.922 26.1747 169.349 26.2287 169.782 26.256C151.772 9.95467 127.77 0 101.412 0C66.0396 0 34.9221 17.9267 16.8166 45.0687C19.196 45.146 21.4356 45.194 23.3337 45.194C33.9211 45.194 50.3202 43.9227 50.3202 43.9227C55.7763 43.6053 56.4175 51.5267 50.9655 52.164C50.9655 52.164 45.4785 52.798 39.3805 53.112L76.2483 161.431L98.4065 95.7993L82.6331 53.1113C77.1771 52.7973 72.0154 52.1633 72.0154 52.1633C66.5594 51.8433 67.1973 43.6047 72.6566 43.922C72.6566 43.922 89.3737 45.1933 99.3225 45.1933C109.911 45.1933 126.309 43.922 126.309 43.922C131.765 43.6047 132.41 51.526 126.954 52.1633C126.954 52.1633 121.461 52.7973 115.37 53.1113L151.957 160.603L162.056 127.281C167.19 114.285 169.761 103.511 169.761 94.9527ZM103.191 108.744L72.8105 195.927C81.8819 198.561 91.4756 200 101.412 200C113.205 200 124.513 197.99 135.035 194.331C134.769 193.903 134.516 193.449 134.312 192.953L103.191 108.744ZM190.258 52.0253C190.695 55.208 190.941 58.624 190.941 62.3067C190.941 72.45 189.014 83.8573 183.238 98.122L152.315 186.428C182.418 169.095 202.658 136.887 202.658 99.9973C202.658 82.61 198.158 66.2653 190.258 52.0253Z" fill="#D3D6EF"/>
</svg>
