<svg width="25" height="27" viewBox="0 0 25 27" fill="none" xmlns="http://www.w3.org/2000/svg">
<path d="M12.6301 0C12.0916 0 11.655 0.424286 11.655 0.947755V19.1976L8.32163 15.9576C7.94181 15.5884 7.32388 15.5884 6.94405 15.9576C6.56422 16.3267 6.56422 16.9273 6.94405 17.2965L11.9385 22.151C12.1256 22.3329 12.375 22.4265 12.6245 22.4265C12.8739 22.4265 13.1233 22.3329 13.3104 22.151L18.3049 17.2965C18.6847 16.9273 18.6847 16.3267 18.3049 15.9576C17.925 15.5884 17.3071 15.5884 16.9273 15.9576L13.5939 19.1976V0.942245C13.5995 0.418776 13.1687 0 12.6301 0Z" fill="#1B1F3B"/>
<path d="M24.9373 26.0578V20.5641C24.9373 20.0406 24.5008 19.6163 23.9622 19.6163C23.4237 19.6163 22.9872 20.0406 22.9872 20.5641V25.1155H2.26675V20.5641C2.26675 20.0406 1.83024 19.6163 1.29734 19.6163C0.764452 19.6163 0.322266 20.0406 0.322266 20.5641V26.0578C0.322266 26.5812 0.758783 27 1.29734 27H23.9622C24.5008 27 24.9373 26.5812 24.9373 26.0578Z" fill="#1B1F3B"/>
</svg>
