<svg width="100" height="100" viewBox="0 0 100 100" fill="none" xmlns="http://www.w3.org/2000/svg">
<path d="M63.5073 87.6868L63.5561 88.347L64.1777 88.1195C79.8914 82.3695 91.1247 67.3906 91.1247 49.75C91.1247 27.1462 72.7106 8.82838 49.9997 8.82838C27.2887 8.82838 8.87492 27.1462 8.87492 49.75C8.87492 68.6119 21.7122 84.4438 39.1528 89.1837L39.7744 89.3527L39.7839 88.7086C39.8401 84.9067 39.912 80.001 39.9058 79.4113L39.9029 79.136L39.6687 78.9913C39.5507 78.9183 39.4347 78.9168 39.429 78.9165C39.3962 78.9147 39.3695 78.9164 39.3567 78.9174C39.3292 78.9195 39.3044 78.9234 39.2898 78.9257C39.2579 78.9309 39.2195 78.9386 39.1818 78.9464C39.152 78.9525 39.1075 78.962 39.0564 78.9728C38.9957 78.9856 38.9258 79.0005 38.8603 79.014C38.5906 79.07 38.2074 79.1453 37.7379 79.2169C36.7972 79.3604 35.516 79.488 34.1191 79.4159C31.3184 79.2712 28.1383 78.3328 26.2276 75.2093C26.0941 74.9854 25.9331 74.6126 25.7094 74.0946L25.6762 74.0177C25.4422 73.4759 25.1558 72.8203 24.7983 72.1298C24.0858 70.754 23.0725 69.2032 21.5682 68.0869C21.5309 68.0589 21.4917 68.0362 21.4812 68.0301C21.456 68.0151 21.4245 67.9972 21.3913 67.9782L21.3608 67.9609C21.2973 67.9249 21.2202 67.8811 21.1314 67.8292C20.9244 67.7083 20.6611 67.5473 20.3978 67.3606C20.1322 67.1724 19.8798 66.9671 19.6873 66.7601C19.5242 66.5847 19.4324 66.4379 19.3919 66.3254C19.3921 66.3251 19.3923 66.3247 19.3925 66.3244C19.3977 66.316 19.4031 66.3083 19.4083 66.3017C19.411 66.2983 19.4134 66.2955 19.4155 66.2933C19.587 66.2312 20.3731 65.9635 21.5249 66.1647C22.7574 66.38 24.4736 67.1445 26.3251 69.4205C26.4205 69.5522 26.5335 69.7292 26.6672 69.9385C27.2583 70.8643 28.2533 72.4225 29.9146 73.4893C32.0231 74.8433 35.1421 75.4059 39.8332 73.4802L40.0643 73.3854L40.1272 73.1437C40.1323 73.1242 40.1375 73.1043 40.1427 73.0841C40.2656 72.6103 40.4358 71.9536 40.8735 71.3347C41.3171 70.7074 42.0564 70.0929 43.3836 69.823L43.3416 68.8364C36.5909 68.0539 31.1689 66.0688 27.1813 62.839C23.2029 59.6166 20.6138 55.1245 19.5741 49.2472C18.9358 45.2919 19.7922 42.3999 21.2151 40.1089C22.5137 38.0181 24.2862 36.4185 25.9135 34.9499C26.0897 34.7909 26.2642 34.6334 26.4362 34.477L26.7805 34.1639L26.4929 33.798C26.4728 33.7725 26.4093 33.6663 26.3199 33.4446C26.2358 33.2361 26.1411 32.9567 26.0478 32.614C25.8613 31.9291 25.6845 31.0075 25.6057 29.9211C25.4523 27.8091 25.6698 25.0936 26.8849 22.2906C28.2029 22.116 30.0679 22.4539 32.2016 23.2443C34.456 24.0794 36.941 25.3937 39.2695 27.0231L39.4796 27.1702L39.7217 27.0853C42.9711 25.9453 47.3069 25.5141 51.4071 25.5894C55.5124 25.6647 59.3021 26.2461 61.4603 27.0799L61.7292 27.1838L61.9539 27.0031C62.9669 26.1882 65.3511 24.7854 67.897 23.7018C69.1656 23.1619 70.4561 22.7092 71.6196 22.4486C72.6276 22.2227 73.4946 22.1518 74.1575 22.2603C74.4385 24.7505 74.7481 29.8093 74.5442 34.1018L74.5337 34.3227L74.69 34.479C78.8471 38.6368 81.1612 43.7561 80.7603 49.5632L80.7602 49.5632L80.7597 49.5742C80.5177 54.7148 78.7176 59.1956 75.2393 62.5407C71.7578 65.889 66.5488 68.1434 59.4113 68.7381L57.9869 68.8568L59.1747 69.6519C62.4647 71.854 62.7366 75.2441 62.8651 76.8461C62.8695 76.9012 62.8737 76.9542 62.8779 77.0049C62.8988 78.9888 63.221 83.8122 63.5073 87.6868ZM0.5 49.75C0.5 22.554 22.6612 0.5 50 0.5C77.3385 0.5 99.4997 22.554 99.5 49.75C99.5 76.9491 77.3388 99 50 99C22.6612 99 0.5 76.9491 0.5 49.75Z" fill="#1B1F3B" stroke="#F9EBEB"/>
</svg>
