<svg width="100" height="100" viewBox="0 0 100 100" fill="none" xmlns="http://www.w3.org/2000/svg">
<g clip-path="url(#clip0_480_1992)">
<path d="M23.2779 32.1709H3.20275C2.31178 32.1709 1.58984 32.8932 1.58984 33.7838V98.2767C1.58984 99.1677 2.31178 99.8896 3.20275 99.8896H23.2779C24.1689 99.8896 24.8908 99.1677 24.8908 98.2767V33.7838C24.8908 32.8932 24.1689 32.1709 23.2779 32.1709Z" fill="#1B1F3B"/>
<path d="M13.2471 0.110352C5.94258 0.110352 0 6.04648 0 13.3429C0 20.6426 5.94258 26.581 13.2471 26.581C20.5458 26.581 26.4835 20.6423 26.4835 13.3429C26.4839 6.04648 20.5458 0.110352 13.2471 0.110352Z" fill="#1B1F3B"/>
<path d="M74.3397 30.5684C66.2768 30.5684 60.3165 34.0345 56.7013 37.9729V33.7842C56.7013 32.8935 55.9794 32.1713 55.0884 32.1713H35.8629C34.9719 32.1713 34.25 32.8935 34.25 33.7842V98.2771C34.25 99.168 34.9719 99.89 35.8629 99.89H55.8942C56.7852 99.89 57.5071 99.168 57.5071 98.2771V66.368C57.5071 55.6155 60.4277 51.4264 67.9232 51.4264C76.0865 51.4264 76.7352 58.1419 76.7352 66.9213V98.2774C76.7352 99.1684 77.4571 99.8903 78.3481 99.8903H98.3868C99.2778 99.8903 99.9997 99.1684 99.9997 98.2774V62.9019C99.9997 46.9132 96.951 30.5684 74.3397 30.5684Z" fill="#1B1F3B"/>
</g>
<defs>
<clipPath id="clip0_480_1992">
<rect width="100" height="100" fill="white"/>
</clipPath>
</defs>
</svg>
