<svg width="100" height="100" viewBox="0 0 100 100" fill="none" xmlns="http://www.w3.org/2000/svg">
<g clip-path="url(#clip0_480_1992)">
<path d="M3.20275 32.6709H23.2779C23.8927 32.6709 24.3908 33.1692 24.3908 33.7838V98.2767C24.3908 98.8915 23.8927 99.3896 23.2779 99.3896H3.20275C2.58792 99.3896 2.08984 98.8915 2.08984 98.2767V33.7838C2.08984 33.1692 2.58799 32.6709 3.20275 32.6709Z" fill="#1B1F3B" stroke="#F9EBEB"/>
<path d="M0.5 13.3429C0.5 6.32314 6.21821 0.610352 13.2471 0.610352C20.2698 0.610352 25.9839 6.32277 25.9835 13.3429C25.9835 20.3662 20.2696 26.081 13.2471 26.081C6.2184 26.081 0.5 20.3661 0.5 13.3429Z" fill="#1B1F3B" stroke="#F9EBEB"/>
<path d="M56.2013 37.9729V39.257L57.0696 38.311C60.5989 34.4661 66.4294 31.0684 74.3397 31.0684C85.5034 31.0684 91.736 35.089 95.2182 40.9934C98.7331 46.9531 99.4997 54.9162 99.4997 62.9019V98.2774C99.4997 98.8922 99.0016 99.3903 98.3868 99.3903H78.3481C77.7332 99.3903 77.2352 98.8922 77.2352 98.2774V66.9213C77.2352 62.5495 77.0796 58.5713 75.8504 55.6856C75.2284 54.2254 74.3235 53.0227 73.0118 52.1907C71.7029 51.3604 70.032 50.9264 67.9232 50.9264C64.0779 50.9264 61.287 52.0074 59.4942 54.5791C57.7345 57.1032 57.0071 60.9722 57.0071 66.368V98.2771C57.0071 98.8919 56.509 99.39 55.8942 99.39H35.8629C35.2481 99.39 34.75 98.8919 34.75 98.2771V33.7842C34.75 33.1696 35.2481 32.6713 35.8629 32.6713H55.0884C55.7031 32.6713 56.2013 33.1696 56.2013 33.7842V37.9729Z" fill="#1B1F3B" stroke="#F9EBEB"/>
</g>
<defs>
<clipPath id="clip0_480_1992">
<rect width="100" height="100" fill="white"/>
</clipPath>
</defs>
</svg>
