<svg width="50" height="50" viewBox="0 0 50 50" fill="none" xmlns="http://www.w3.org/2000/svg">
<g clip-path="url(#clip0)">
<path d="M11.639 16.0855H1.60137C1.15589 16.0855 0.794922 16.4466 0.794922 16.8919V49.1384C0.794922 49.5839 1.15589 49.9448 1.60137 49.9448H11.639C12.0844 49.9448 12.4454 49.5839 12.4454 49.1384V16.8919C12.4454 16.4466 12.0844 16.0855 11.639 16.0855Z" fill="#D3D6EF"/>
<path d="M6.62355 0.0550537C2.97129 0.0550537 0 3.02312 0 6.67134C0 10.3212 2.97129 13.2904 6.62355 13.2904C10.2729 13.2904 13.2418 10.321 13.2418 6.67134C13.2419 3.02312 10.2729 0.0550537 6.62355 0.0550537Z" fill="#D3D6EF"/>
<path d="M37.1698 15.2841C33.1384 15.2841 30.1582 17.0172 28.3506 18.9864V16.892C28.3506 16.4467 27.9897 16.0856 27.5442 16.0856H17.9315C17.486 16.0856 17.125 16.4467 17.125 16.892V49.1385C17.125 49.584 17.486 49.9449 17.9315 49.9449H27.9471C28.3926 49.9449 28.7535 49.584 28.7535 49.1385V33.184C28.7535 27.8077 30.2139 25.7132 33.9616 25.7132C38.0432 25.7132 38.3676 29.0709 38.3676 33.4606V49.1386C38.3676 49.5841 38.7286 49.9451 39.174 49.9451H49.1934C49.6389 49.9451 49.9998 49.5841 49.9998 49.1386V31.4509C49.9998 23.4565 48.4755 15.2841 37.1698 15.2841Z" fill="#D3D6EF"/>
</g>
<defs>
<clipPath id="clip0">
<rect width="50" height="50" fill="white"/>
</clipPath>
</defs>
</svg>
