<svg width="50" height="42" viewBox="0 0 50 42" fill="none" xmlns="http://www.w3.org/2000/svg">
<path d="M48.866 5.25606C48.0805 5.60445 47.2729 5.89848 46.4478 6.13719C47.4247 5.03235 48.1695 3.73235 48.6242 2.30977C48.7262 1.9909 48.6205 1.64187 48.3584 1.43332C48.0966 1.22461 47.7329 1.19961 47.4447 1.37042C45.6923 2.40977 43.8016 3.15671 41.8192 3.59348C39.8223 1.64219 37.11 0.531708 34.3062 0.531708C28.3876 0.531708 23.5724 5.34671 23.5724 11.2651C23.5724 11.7312 23.602 12.1948 23.6603 12.6519C16.316 12.007 9.48809 8.39719 4.79938 2.64574C4.63228 2.44074 4.37486 2.33026 4.11132 2.35138C3.84761 2.37203 3.61067 2.52074 3.47744 2.74929C2.52648 4.38106 2.02374 6.24735 2.02374 8.14622C2.02374 10.7325 2.94712 13.1864 4.57825 15.1038C4.08228 14.932 3.60099 14.7173 3.14164 14.4623C2.89503 14.3251 2.59406 14.3272 2.34906 14.4677C2.1039 14.6082 1.95019 14.8665 1.94374 15.149C1.94261 15.1965 1.94261 15.2441 1.94261 15.2923C1.94261 19.1528 4.02035 22.6285 7.19696 24.5228C6.92406 24.4956 6.65132 24.4561 6.38035 24.4043C6.10099 24.3509 5.81374 24.4488 5.62535 24.6619C5.43664 24.8748 5.37422 25.1715 5.46115 25.4425C6.63696 29.1135 9.66422 31.8136 13.3239 32.6369C10.2886 34.538 6.81744 35.5338 3.17357 35.5338C2.41325 35.5338 1.64857 35.4891 0.900187 35.4006C0.528412 35.3564 0.172929 35.5759 0.0463157 35.9294C-0.0802972 36.2831 0.0538964 36.6775 0.370187 36.8802C5.05132 39.8817 10.4641 41.4681 16.0229 41.4681C26.951 41.4681 33.7873 36.3149 37.5978 31.9919C42.3494 26.6014 45.0745 19.4664 45.0745 12.4165C45.0745 12.122 45.07 11.8246 45.061 11.5282C46.9357 10.1157 48.5497 8.40638 49.8631 6.44171C50.0626 6.14332 50.041 5.74896 49.8099 5.47429C49.5791 5.19945 49.1944 5.11058 48.866 5.25606Z" fill="#D3D6EF"/>
</svg>
