<svg width="100" height="100" viewBox="0 0 100 100" fill="none" xmlns="http://www.w3.org/2000/svg">
<path d="M50.0003 4C24.6363 4 4.0003 24.636 4.0003 50C4.0003 57.92 6.0463 65.708 9.9263 72.58L4.0743 93.46C3.8823 94.146 4.0683 94.882 4.5643 95.392C4.9463 95.786 5.4663 96 6.0003 96C6.1603 96 6.3223 95.98 6.4803 95.942L28.2723 90.544C34.9263 94.116 42.4203 96 50.0003 96C75.3643 96 96.0003 75.364 96.0003 50C96.0003 24.636 75.3643 4 50.0003 4ZM73.1403 66.232C72.1563 68.956 67.4363 71.442 65.1683 71.776C63.1323 72.074 60.5563 72.202 57.7283 71.314C56.0143 70.774 53.8143 70.058 50.9963 68.856C39.1503 63.804 31.4143 52.026 30.8223 51.248C30.2323 50.47 26.0003 44.926 26.0003 39.188C26.0003 33.45 29.0503 30.628 30.1343 29.46C31.2183 28.292 32.4963 28 33.2843 28C34.0723 28 34.8583 28.01 35.5483 28.042C36.2743 28.078 37.2483 27.768 38.2063 30.044C39.1903 32.38 41.5523 38.118 41.8443 38.704C42.1403 39.288 42.3363 39.97 41.9443 40.748C41.5523 41.526 41.3563 42.012 40.7643 42.694C40.1723 43.376 39.5243 44.214 38.9923 44.738C38.4003 45.32 37.7863 45.95 38.4743 47.118C39.1623 48.286 41.5323 52.104 45.0443 55.196C49.5543 59.168 53.3603 60.4 54.5403 60.984C55.7203 61.568 56.4103 61.47 57.0983 60.692C57.7863 59.912 60.0503 57.286 60.8363 56.12C61.6223 54.954 62.4103 55.146 63.4943 55.536C64.5783 55.924 70.3843 58.744 71.5643 59.328C72.7443 59.912 73.5323 60.204 73.8283 60.69C74.1243 61.174 74.1243 63.51 73.1403 66.232Z" fill="#1B1F3B"/>
</svg>
