<svg width="100" height="100" viewBox="0 0 100 100" fill="none" xmlns="http://www.w3.org/2000/svg">
<path d="M74.2553 60.4299C74.0331 60.065 73.6566 59.8178 73.266 59.6062C73.0253 59.4757 72.7313 59.3352 72.4096 59.1815C72.2104 59.0863 72.0005 58.986 71.7861 58.8799C71.1935 58.5866 69.4447 57.7345 67.7084 56.9071C65.9887 56.0877 64.2367 55.2709 63.6636 55.0655C63.1358 54.8756 62.5608 54.6836 61.997 54.7477C61.3789 54.818 60.8695 55.1762 60.4217 55.8405C59.6578 56.9737 57.419 59.5725 56.7237 60.3608C56.4284 60.6948 56.1873 60.8231 55.9442 60.8523C55.6808 60.8839 55.3189 60.8114 54.7621 60.5359C54.5568 60.4343 54.2823 60.3164 53.9466 60.1723C52.2724 59.4535 49.0777 58.082 45.3748 54.8208L45.3747 54.8207C41.9224 51.7813 39.5844 48.0174 38.9051 46.8642C38.6215 46.3827 38.6434 46.0914 38.7213 45.8843C38.8176 45.6281 39.0331 45.3991 39.3428 45.0946L39.3432 45.0942C39.7131 44.7298 40.1475 44.2077 40.5626 43.7089C40.7634 43.4676 40.9596 43.2317 41.1419 43.0218C41.6911 42.389 41.9359 41.8929 42.2332 41.2901C42.2837 41.1878 42.3356 41.0825 42.3908 40.973C42.886 39.9903 42.6187 39.1265 42.2911 38.4796C42.1031 38.1012 41.0235 35.5054 40.024 33.1022C39.5046 31.8534 39.0069 30.6566 38.6671 29.85C38.1655 28.6583 37.6161 28.0361 37.0014 27.7498C36.5374 27.5336 36.0448 27.5396 35.7469 27.5433C35.6774 27.5441 35.6185 27.5449 35.5731 27.5426L35.5715 27.5425C34.8702 27.51 34.0754 27.5 33.2843 27.5C32.3834 27.5 30.9628 27.8322 29.7678 29.1199C29.6994 29.1936 29.6226 29.2744 29.5389 29.3626C28.2936 30.6735 25.5003 33.614 25.5003 39.188C25.5003 42.171 26.5972 45.0742 27.7454 47.3067C28.8834 49.5192 30.0941 51.1153 30.4126 51.5352L30.4239 51.5501L30.4244 51.5508C30.4613 51.5993 30.5292 51.6954 30.6271 51.8343C32.0286 53.8202 39.5904 64.5353 50.8001 69.3159C53.64 70.5272 55.8577 71.2489 57.5781 71.7909L57.5785 71.791C60.5053 72.7101 63.1646 72.5746 65.2407 72.2707L65.2411 72.2707L73.1403 66.232L73.6105 66.402C74.1175 64.9996 74.3727 63.6926 74.4624 62.6653C74.5072 62.1521 74.5114 61.7011 74.4825 61.3376C74.4558 61.0025 74.396 60.6604 74.2553 60.4299ZM74.2553 60.4299L73.8283 60.69L74.2549 60.4291C74.255 60.4294 74.2552 60.4297 74.2553 60.4299ZM10.4077 72.7149L10.4638 72.515L10.3617 72.3342C6.52414 65.5373 4.5003 57.834 4.5003 50C4.5003 24.9121 24.9124 4.5 50.0003 4.5C75.0882 4.5 95.5003 24.9121 95.5003 50C95.5003 75.0879 75.0882 95.5 50.0003 95.5C42.5027 95.5 35.0899 93.6363 28.5088 90.1035L28.3391 90.0124L28.1521 90.0587L6.36338 95.4559C6.36299 95.456 6.36261 95.456 6.36222 95.4561C6.24098 95.4852 6.11862 95.5 6.0003 95.5C5.5997 95.5 5.2098 95.3395 4.92328 95.044L4.92274 95.0434C4.55154 94.6617 4.41157 94.1101 4.55579 93.5948L10.4077 72.7149Z" fill="#1B1F3B" stroke="#F9EBEB"/>
</svg>
