<svg width="100" height="82" viewBox="0 0 100 82" fill="none" xmlns="http://www.w3.org/2000/svg">
<path d="M7.38881 4.68696C7.57265 4.37158 7.89967 4.16632 8.26361 4.13783L8.26454 4.13775C8.62697 4.1087 8.98228 4.26073 9.21315 4.54397L9.21317 4.54399C18.6758 16.1514 32.4556 23.4369 47.2789 24.7384L47.8973 24.7927L47.8186 24.177C47.7045 23.2839 47.6468 22.3779 47.6468 21.4668C47.6468 9.90615 57.0533 0.5 68.6143 0.5C74.091 0.5 79.3902 2.66962 83.2909 6.48116L83.4842 6.66996L83.748 6.61184C87.7649 5.72681 91.596 4.21323 95.1464 2.10747C95.5444 1.8717 96.0462 1.90645 96.4071 2.19418L96.4074 2.19448C96.7689 2.48209 96.9148 2.96372 96.7741 3.40388C95.8861 6.18224 94.4314 8.72144 92.5229 10.8798L91.3822 12.1698L93.0364 11.6913C94.7083 11.2076 96.3447 10.6118 97.9365 9.90585C98.39 9.70492 98.9206 9.82782 99.2388 10.2067L99.2391 10.2071C99.558 10.586 99.5879 11.1302 99.3125 11.5421L99.7281 11.82L99.3125 11.5421C96.7167 15.4251 93.5273 18.8027 89.8231 21.5936L89.6163 21.7493L89.6242 22.0081C89.6421 22.596 89.651 23.1857 89.651 23.7697C89.651 37.745 84.2468 51.8981 74.8224 62.5897C67.2701 71.1579 53.725 81.3729 32.0478 81.3729C21.0258 81.3729 10.2939 78.2274 1.01221 72.2762L1.01215 72.2761C0.575905 71.9965 0.390539 71.4524 0.56531 70.964C0.739919 70.4765 1.23107 70.1733 1.74331 70.2342L1.74358 70.2343C3.26011 70.4137 4.80909 70.5042 6.3491 70.5042C13.7297 70.5042 20.7641 68.4867 26.9152 64.634L27.9448 63.9891L26.7595 63.7225C19.6104 62.1144 13.6972 56.8396 11.4004 49.6691L11.4004 49.6688C11.2804 49.295 11.3666 48.8856 11.6268 48.592L11.6272 48.5915C11.8869 48.2978 12.2833 48.1626 12.6688 48.2363L12.7626 47.7451L12.6688 48.2363C13.2254 48.3426 13.7856 48.4238 14.3462 48.4798L14.652 47.5528C8.44547 43.8516 4.38717 37.0609 4.38717 29.5213C4.38717 29.4238 4.38719 29.3346 4.38928 29.2464L4.38929 29.2459C4.3982 28.8562 4.61027 28.4997 4.94866 28.3057L4.94878 28.3057C5.28698 28.1118 5.70229 28.1091 6.04207 28.2982L6.04255 28.2984C6.98668 28.8226 7.97572 29.2637 8.99482 29.6166L10.7272 30.2167L9.5393 28.8202C6.35325 25.075 4.54942 20.2818 4.54942 15.229C4.54942 11.5193 5.53166 7.87366 7.38881 4.68696ZM7.38881 4.68696L6.95684 4.43516M7.38881 4.68696L6.95684 4.43516M6.95684 4.43516C7.22329 3.97806 7.69717 3.68064 8.22458 3.63935L6.95684 4.43516Z" fill="#1B1F3B" stroke="#F9EBEB"/>
</svg>
