<svg width="100" height="100" viewBox="0 0 100 100" fill="none" xmlns="http://www.w3.org/2000/svg">
<g clip-path="url(#clip0_480_1989)">
<path d="M97.733 18.5122C96.162 19.209 94.5468 19.797 92.8965 20.2744C94.8504 18.0648 96.34 15.4648 97.2494 12.6196C97.4533 11.9819 97.242 11.2838 96.7178 10.8667C96.1942 10.4493 95.4668 10.3993 94.8904 10.7409C91.3855 12.8196 87.6042 14.3135 83.6394 15.187C79.6455 11.2844 74.221 9.06348 68.6133 9.06348C56.7762 9.06348 47.1459 18.6935 47.1459 30.5302C47.1459 31.4625 47.2049 32.3896 47.3217 33.3038C32.633 32.0141 18.9772 24.7944 9.59974 13.2915C9.26554 12.8815 8.7507 12.6606 8.22361 12.7028C7.69619 12.7441 7.22232 13.0415 6.95587 13.4986C5.05393 16.7622 4.04845 20.4948 4.04845 24.2925C4.04845 29.4651 5.89522 34.3728 9.15748 38.2077C8.16554 37.8641 7.20296 37.4348 6.28425 36.9248C5.79103 36.6502 5.18909 36.6544 4.69909 36.9354C4.20877 37.2164 3.90135 37.7331 3.88845 38.298C3.88619 38.3931 3.88619 38.4883 3.88619 38.5848C3.88619 46.3057 8.04167 53.257 14.3949 57.0457C13.8491 56.9912 13.3036 56.9122 12.7617 56.8086C12.203 56.7018 11.6284 56.8977 11.2517 57.3238C10.8743 57.7496 10.7494 58.3431 10.9233 58.8851C13.2749 66.227 19.3294 71.6273 26.6488 73.2738C20.5781 77.076 13.6359 79.0676 6.34812 79.0676C4.82748 79.0676 3.29812 78.9783 1.80135 78.8012C1.0578 78.7128 0.346834 79.1518 0.093608 79.8589C-0.159618 80.5664 0.108769 81.3551 0.74135 81.7606C10.1036 87.7635 20.9291 90.9364 32.0468 90.9364C53.903 90.9364 67.5755 80.6299 75.1965 71.9838C84.6997 61.2028 90.1501 46.9328 90.1501 32.8331C90.1501 32.2441 90.141 31.6493 90.123 31.0564C93.8723 28.2315 97.1004 24.8128 99.7271 20.8835C100.126 20.2867 100.083 19.498 99.6207 18.9486C99.1591 18.399 98.3897 18.2212 97.733 18.5122Z" fill="#1B1F3B"/>
</g>
<defs>
<clipPath id="clip0_480_1989">
<rect width="100" height="100" fill="white"/>
</clipPath>
</defs>
</svg>
